<svg width="37" height="34" viewBox="0 0 37 34" fill="none" xmlns="http://www.w3.org/2000/svg">
    <path fill-rule="evenodd" clip-rule="evenodd" d="M10.0137 7.6162H35.0715C35.3676 7.61718 35.6591 7.68965 35.9212 7.82745C36.1833 7.96525 36.4082 8.16431 36.5769 8.40769C36.7456 8.65107 36.853 8.93159 36.89 9.22539C36.927 9.51919 36.8926 9.81758 36.7895 10.0952L31.2888 24.7639C31.0192 25.4771 30.3353 25.952 29.5707 25.952H14.9021C14.1631 25.952 13.4939 25.5065 13.2097 24.8244L4.51298 3.94903H0.233398V0.28187H4.51115C5.23551 0.280236 5.94405 0.4937 6.54696 0.895206C7.14988 1.29671 7.62001 1.86818 7.89777 2.53718L10.0137 7.6162ZM24.07 18.6177H27.7371V14.9505H24.07V11.2834H20.4028V14.9505H16.7356V18.6177H20.4028V22.2849H24.07V18.6177ZM15.8188 33.2863C17.3378 33.2863 18.5692 32.0549 18.5692 30.5359C18.5692 29.0169 17.3378 27.7855 15.8188 27.7855C14.2998 27.7855 13.0684 29.0169 13.0684 30.5359C13.0684 32.0549 14.2998 33.2863 15.8188 33.2863ZM28.6538 33.2863C30.1728 33.2863 31.4042 32.0549 31.4042 30.5359C31.4042 29.0169 30.1728 27.7855 28.6538 27.7855C27.1349 27.7855 25.9035 29.0169 25.9035 30.5359C25.9035 32.0549 27.1349 33.2863 28.6538 33.2863Z" fill="white"/>
</svg>
