<svg width="33" height="36" viewBox="0 0 33 36" fill="none" xmlns="http://www.w3.org/2000/svg">
    <path d="M15.8819 35.361C16.4024 35.6389 17.0557 35.6372 17.5762 35.3592C31.7601 27.7397 32.7674 12.8529 32.755 8.62004C32.7537 8.27984 32.6532 7.94741 32.4657 7.66347C32.2783 7.37953 32.0122 7.15641 31.6999 7.02143L17.4487 0.708403C17.2219 0.608431 16.9767 0.556947 16.7289 0.557252C16.481 0.557557 16.236 0.609644 16.0094 0.710173L1.85733 7.0232C1.54963 7.15825 1.28725 7.37891 1.10144 7.65888C0.915627 7.93886 0.814215 8.26635 0.809286 8.60234C0.749094 12.814 1.59709 27.7326 15.8819 35.361ZM10.9002 15.0712L14.9596 19.1305L22.5597 11.5305L25.0629 14.0337L14.9596 24.1371L8.39695 17.5744L10.9002 15.0712Z" fill="white"/>
</svg>
